# xmcd
#
# Track frame offsets:
#	150
#	11451
#	22099
#	39441
#	52793
#	66585
#	78062
#	89699
#	102350
#	115543
#	130604
#	145371
#	156365
#
# Disc length: 2361 seconds
#
# Revision: 1
# Processed by: cddbd v1.5.2PL0 Copyright (c) Steve Scherf et al.
# Submitted via: audiograbber 1.83.01
#
DISCID=a309370d
DTITLE=Diverse Kunstnere Country - Les Richardson
DYEAR=2000
DGENRE=Country
TTITLE0=Sylvia Winters - Home Is Where The Heart Is
TTITLE1=Ernie Ashworth - Heartaches, Headaches And Hangovers
TTITLE2=Freddy Lovvorn - When Goodbye´s Are Good
TTITLE3=Jamie Harper - Big City Girl
TTITLE4=Jerry Hill - Under Your Spellagain
TTITLE5=Shelly Streeter - Purple Bows
TTITLE6=Paul Collette - To Be With You
TTITLE7=Shirley Frederickson - Rocin´chair Partner
TTITLE8=Woddy Wills - The Shoes Goes On The Other Foot
TTITLE9=Joyce Meré - She´ll Get By
TTITLE10=Tom Cunningham - Don´t Catch That Plane Tonight
TTITLE11=Tonya Rae - Heart Like A Wheel
TTITLE12=Les Richardson - Walk Away
EXTD=
EXTT0=
EXTT1=
EXTT2=
EXTT3=
EXTT4=
EXTT5=
EXTT6=
EXTT7=
EXTT8=
EXTT9=
EXTT10=
EXTT11=
EXTT12=
PLAYORDER=
